HIERARCHY
ROOT Hips
{
  OFFSET 5.84602e-005 68.8428 3.50346
  CHANNELS 6 Xposition Yposition Zposition Zrotation Xrotation Yrotation
  JOINT Spine
  {
    OFFSET 0 8.597 -4.6522
    CHANNELS 3 Zrotation Xrotation Yrotation
    JOINT Spine1
    {
      OFFSET 0 7.8454 0.4098
      CHANNELS 3 Zrotation Xrotation Yrotation
      JOINT Spine2
      {
        OFFSET 0 9.7078 -2.1609
        CHANNELS 3 Zrotation Xrotation Yrotation
        JOINT Neck
        {
          OFFSET 0 21.8761 -0.4549
          CHANNELS 3 Zrotation Xrotation Yrotation
          JOINT Head
          {
            OFFSET 0 12.3537 3.3602
            CHANNELS 3 Zrotation Xrotation Yrotation
            End Site
            {
              OFFSET 0.0001 18.9506 0.5657
            }
          }
        }
        JOINT LeftShoulder
        {
          OFFSET 2.2086 21.1115 7.2329
          CHANNELS 3 Zrotation Xrotation Yrotation
          JOINT LeftArm
          {
            OFFSET 13.1193 3.0282 -4.8998
            CHANNELS 3 Zrotation Xrotation Yrotation
            JOINT LeftForeArm
            {
              OFFSET 27.4081 -0.0973053 -0.2375
              CHANNELS 3 Zrotation Xrotation Yrotation
              JOINT LeftHand
              {
                OFFSET 22.8641 0.0662994 -0.1369
                CHANNELS 3 Zrotation Xrotation Yrotation
                JOINT LeftHandIndex1
                {
                  OFFSET 8.8614 0.775009 2.4612
                  CHANNELS 3 Zrotation Xrotation Yrotation
                  JOINT LeftHandIndex2
                  {
                    OFFSET 3.3146 -0.808304 0.5841
                    CHANNELS 3 Zrotation Xrotation Yrotation
                    JOINT LeftHandIndex3
                    {
                      OFFSET 2.2628 -0.552002 0.3989
                      CHANNELS 3 Zrotation Xrotation Yrotation
                      End Site
                      {
                        OFFSET 1.6102 -0.4807 0.2612
                      }
                    }
                  }
                }
                JOINT LeftHandMiddle1
                {
                  OFFSET 8.9937 0.895004 0.2143
                  CHANNELS 3 Zrotation Xrotation Yrotation
                  JOINT LeftHandMiddle2
                  {
                    OFFSET 4.0984 0.0113983 -0.0242
                    CHANNELS 3 Zrotation Xrotation Yrotation
                    JOINT LeftHandMiddle3
                    {
                      OFFSET 2.2716 0.00689697 -0.0138001
                      CHANNELS 3 Zrotation Xrotation Yrotation
                      End Site
                      {
                        OFFSET 2.0404 -0.1441 0.0027
                      }
                    }
                  }
                }
                JOINT LeftHandRing1
                {
                  OFFSET 8.5234 0.597198 -2.0164
                  CHANNELS 3 Zrotation Xrotation Yrotation
                  JOINT LeftHandRing2
                  {
                    OFFSET 3.7188 -0.188293 -0.2328
                    CHANNELS 3 Zrotation Xrotation Yrotation
                    JOINT LeftHandRing3
                    {
                      OFFSET 2.1191 -0.106598 -0.1332
                      CHANNELS 3 Zrotation Xrotation Yrotation
                      End Site
                      {
                        OFFSET 1.8737 -0.2304 -0.0886
                      }
                    }
                  }
                }
                JOINT LeftHandPinky1
                {
                  OFFSET 7.9094 -0.601089 -3.4825
                  CHANNELS 3 Zrotation Xrotation Yrotation
                  JOINT LeftHandPinky2
                  {
                    OFFSET 2.2874 -0.477005 -0.6314
                    CHANNELS 3 Zrotation Xrotation Yrotation
                    JOINT LeftHandPinky3
                    {
                      OFFSET 1.6774 -0.349396 -0.4633
                      CHANNELS 3 Zrotation Xrotation Yrotation
                      End Site
                      {
                        OFFSET 1.4888 -0.4091 -0.3416
                      }
                    }
                  }
                }
                JOINT LeftHandThumb1
                {
                  OFFSET 1.833 -1.3875 1.3896
                  CHANNELS 3 Zrotation Xrotation Yrotation
                  JOINT LeftHandThumb2
                  {
                    OFFSET 3.4129 -1.121 2.5732
                    CHANNELS 3 Zrotation Xrotation Yrotation
                    JOINT LeftHandThumb3
                    {
                      OFFSET 2.2474 -0.804199 1.6192
                      CHANNELS 3 Zrotation Xrotation Yrotation
                      End Site
                      {
                        OFFSET 1.6527 -0.5689 1.1317
                      }
                    }
                  }
                }
              }
            }
          }
        }
        JOINT RightShoulder
        {
          OFFSET -2.2086 21.1115 7.2329
          CHANNELS 3 Zrotation Xrotation Yrotation
          JOINT RightArm
          {
            OFFSET -13.1216 3.0287 -4.9007
            CHANNELS 3 Zrotation Xrotation Yrotation
            JOINT RightForeArm
            {
              OFFSET -27.4081 -0.0973053 -0.2375
              CHANNELS 3 Zrotation Xrotation Yrotation
              JOINT RightHand
              {
                OFFSET -22.8641 0.0664063 -0.1369
                CHANNELS 3 Zrotation Xrotation Yrotation
                JOINT RightHandIndex1
                {
                  OFFSET -8.8614 0.774994 2.4612
                  CHANNELS 3 Zrotation Xrotation Yrotation
                  JOINT RightHandIndex2
                  {
                    OFFSET -3.3146 -0.808304 0.5841
                    CHANNELS 3 Zrotation Xrotation Yrotation
                    JOINT RightHandIndex3
                    {
                      OFFSET -2.2628 -0.552002 0.3989
                      CHANNELS 3 Zrotation Xrotation Yrotation
                      End Site
                      {
                        OFFSET -1.6102 -0.4807 0.2612
                      }
                    }
                  }
                }
                JOINT RightHandMiddle1
                {
                  OFFSET -8.9937 0.894989 0.2143
                  CHANNELS 3 Zrotation Xrotation Yrotation
                  JOINT RightHandMiddle2
                  {
                    OFFSET -4.0984 0.0113983 -0.0242
                    CHANNELS 3 Zrotation Xrotation Yrotation
                    JOINT RightHandMiddle3
                    {
                      OFFSET -2.2716 0.00691223 -0.0138001
                      CHANNELS 3 Zrotation Xrotation Yrotation
                      End Site
                      {
                        OFFSET -2.0404 -0.1441 0.0027
                      }
                    }
                  }
                }
                JOINT RightHandRing1
                {
                  OFFSET -8.5234 0.597198 -2.0164
                  CHANNELS 3 Zrotation Xrotation Yrotation
                  JOINT RightHandRing2
                  {
                    OFFSET -3.7188 -0.188309 -0.2328
                    CHANNELS 3 Zrotation Xrotation Yrotation
                    JOINT RightHandRing3
                    {
                      OFFSET -2.1191 -0.106598 -0.1332
                      CHANNELS 3 Zrotation Xrotation Yrotation
                      End Site
                      {
                        OFFSET -1.8737 -0.2304 -0.0886
                      }
                    }
                  }
                }
                JOINT RightHandPinky1
                {
                  OFFSET -7.9094 -0.601105 -3.4825
                  CHANNELS 3 Zrotation Xrotation Yrotation
                  JOINT RightHandPinky2
                  {
                    OFFSET -2.2874 -0.477005 -0.6314
                    CHANNELS 3 Zrotation Xrotation Yrotation
                    JOINT RightHandPinky3
                    {
                      OFFSET -1.6774 -0.349396 -0.4633
                      CHANNELS 3 Zrotation Xrotation Yrotation
                      End Site
                      {
                        OFFSET -1.4888 -0.4091 -0.3416
                      }
                    }
                  }
                }
                JOINT RightHandThumb1
                {
                  OFFSET -1.833 -1.38751 1.3896
                  CHANNELS 3 Zrotation Xrotation Yrotation
                  JOINT RightHandThumb2
                  {
                    OFFSET -3.41299 -1.12099 2.5732
                    CHANNELS 3 Zrotation Xrotation Yrotation
                    JOINT RightHandThumb3
                    {
                      OFFSET -2.24741 -0.804108 1.6192
                      CHANNELS 3 Zrotation Xrotation Yrotation
                      End Site
                      {
                        OFFSET -1.6527 -0.5689 1.1317
                      }
                    }
                  }
                }
              }
            }
          }
        }
      }
    }
  }
  JOINT RightUpLeg
  {
    OFFSET -9.1966 3.8861 -0.7581
    CHANNELS 3 Zrotation Xrotation Yrotation
    JOINT RightLeg
    {
      OFFSET -0.7359 -41.0265 0
      CHANNELS 3 Zrotation Xrotation Yrotation
      JOINT RightFoot
      {
        OFFSET 0 -40.2855 0
        CHANNELS 3 Zrotation Xrotation Yrotation
        JOINT RightToeBase
        {
          OFFSET 0 -5.6122 11.7359
          CHANNELS 3 Zrotation Xrotation Yrotation
          End Site
          {
            OFFSET 0 0 7.8731
          }
        }
      }
    }
  }
  JOINT LeftUpLeg
  {
    OFFSET 9.1965 3.8864 -0.7581
    CHANNELS 3 Zrotation Xrotation Yrotation
    JOINT LeftLeg
    {
      OFFSET 0.7359 -41.0268 0
      CHANNELS 3 Zrotation Xrotation Yrotation
      JOINT LeftFoot
      {
        OFFSET 0 -40.2855 0
        CHANNELS 3 Zrotation Xrotation Yrotation
        JOINT LeftToeBase
        {
          OFFSET 0 -5.6122 11.7359
          CHANNELS 3 Zrotation Xrotation Yrotation
          End Site
          {
            OFFSET 0 0 7.8731
          }
        }
      }
    }
  }
}
MOTION
Frames:	4
Frame Time:	0.0333333
2.51432 4.00154 6.29516 -47.1291 -89.9994 -0.12942 0.0322349 -0.308887 -9.88354 0.0109353 -0.618731 -19.7673 0.0109499 -0.618714 -19.7673 1.04559 18.1866 -20.5536 20.2848 -10.4415 3.72395 -28.3861 -0.712986 2.45504 -44.7949 8.97378 -47.5816 -18.037 21.518 -10.0981 -26.472 7.76421 -8.98642 -1.30592e-007 -3.93929e-007 9.97662e-008 1.1005e-007 -2.1472e-008 -2.21598e-006 -1.30592e-007 -3.93929e-007 9.97661e-008 -1.30592e-007 -3.93929e-007 9.97662e-008 -0.0146428 -9.04519e-005 -2.61302e-006 -1.30591e-007 -3.93942e-007 9.97159e-008 -1.30592e-007 -3.93929e-007 9.97662e-008 -0.0187037 -0.00117389 5.07999e-005 -8.00418e-008 -1.64624e-007 1.13085e-006 -1.30592e-007 -3.93929e-007 9.97662e-008 -0.0122849 -0.00325195 0.000682167 -1.30591e-007 -3.93939e-007 9.97276e-008 -1.30592e-007 -3.93929e-007 9.97662e-008 1.1005e-007 -2.1472e-008 -2.21598e-006 -1.30592e-007 -3.93929e-007 9.97661e-008 -21.1581 -5.95031 -1.94405 -28.5249 -5.65461 3.3729 -70.8026 60.6231 -0.276018 6.99682 -4.9378e-006 2.13253e-006 -8.84592e-015 -3.57812e-015 -6.36111e-015 1.42649e-006 -8.0225e-007 -2.48166e-007 1.25234e-014 -1.66979e-014 3.18055e-015 -8.84592e-015 -3.57812e-015 -6.36111e-015 0.0149836 -9.06643e-005 -4.75797e-006 -4.77083e-015 5.26779e-015 -0 -8.84592e-015 -3.57812e-015 -6.36111e-015 0.0189871 -0.00118802 -6.16457e-005 -1.36538e-006 3.61431e-007 -2.41979e-006 -8.84592e-015 -3.57812e-015 -6.36111e-015 0.0122574 -0.00324309 -0.00067693 -1.36601e-006 3.61386e-007 -2.4198e-006 -8.84592e-015 -3.57812e-015 -6.36111e-015 1.42649e-006 -8.0225e-007 -2.48166e-007 1.25234e-014 -1.66979e-014 3.18055e-015 -8.54786 -7.08415 -26.9005 10.5214 61.6702 -12.1792 -8.56291 19.3295 0.450912 -5.56597e-015 -3.18055e-015 1.59028e-015 6.21633 -16.7409 -19.4819 -6.6338 14.4921 2.03069 8.88792 10.9281 0.821616 1.99452e-006 -4.0503e-007 2.60657e-006 
2.51429 4.00172 6.29519 -47.1291 -89.9994 -0.12942 0.0322349 -0.308887 -9.88354 0.0109353 -0.618731 -19.7673 0.0109499 -0.618714 -19.7673 0.994128 18.1892 -20.5404 20.1596 -10.4509 3.70053 -28.3861 -0.712986 2.45504 -44.795 8.97377 -47.5817 -18.2297 21.5514 -10.0879 -26.472 7.7642 -8.98643 3.05794e-008 2.28189e-007 1.02166e-006 6.51575e-008 1.97085e-007 -4.95829e-008 -3.05795e-008 -2.28189e-007 -1.02166e-006 3.05794e-008 2.28189e-007 1.02166e-006 -0.0146026 -8.91826e-005 -3.4806e-006 -7.95139e-016 3.18055e-015 -0 3.05794e-008 2.28189e-007 1.02166e-006 -0.0187342 -0.00117516 5.35361e-005 -2.82272e-008 -2.27874e-007 -1.0217e-006 3.05794e-008 2.28189e-007 1.02166e-006 -0.0122867 -0.00325249 0.000675457 -1.59028e-015 7.95139e-016 -0 3.05794e-008 2.28189e-007 1.02166e-006 6.51575e-008 1.97085e-007 -4.95829e-008 -3.05795e-008 -2.28189e-007 -1.02166e-006 -21.1581 -5.95031 -1.94405 -28.5249 -5.65461 3.3729 -70.8026 60.6231 -0.275965 6.99682 -1.30034e-006 8.90881e-006 -2.98177e-015 6.31141e-015 -0 -2.88238e-015 6.31141e-015 -3.18055e-015 2.48481e-015 7.00716e-015 -0 -2.98177e-015 6.31141e-015 -0 0.0149865 -9.22744e-005 -5.25564e-006 -1.3657e-006 3.61611e-007 -2.41978e-006 -2.98177e-015 6.31141e-015 -0 0.0189929 -0.00119167 -6.53077e-005 -1.98785e-016 -1.68967e-015 -0 -2.98177e-015 6.31141e-015 -0 0.0122574 -0.00324476 -0.000675538 -9.93923e-016 -6.21202e-015 6.36111e-015 -2.98177e-015 6.31141e-015 -0 -2.88238e-015 6.31141e-015 -3.18055e-015 2.48481e-015 7.00716e-015 -0 -8.54774 -7.08396 -26.9005 10.5214 61.6701 -12.1792 -8.56297 19.3294 0.450914 7.95139e-016 0 -0 6.2567 -16.7265 -19.3308 -6.63361 14.4874 2.02953 8.88476 10.9316 0.82165 2.56923e-006 2.14018e-006 -2.1283e-006 
2.51425 4.0019 6.29521 -47.1291 -89.9994 -0.12942 0.0322349 -0.308887 -9.88354 0.0109353 -0.618731 -19.7673 0.0109499 -0.618714 -19.7673 0.942702 18.1919 -20.5272 20.0344 -10.4602 3.67708 -28.3861 -0.712986 2.45504 -44.795 8.97377 -47.5816 -18.4224 21.5846 -10.0776 -26.472 7.7642 -8.98643 -6.50189e-008 -1.97205e-007 4.92825e-008 1.39204e-006 -1.70308e-006 -3.0845e-006 -6.50189e-008 -1.97205e-007 4.92826e-008 -6.50189e-008 -1.97205e-007 4.92825e-008 -0.0146717 -9.21321e-005 -3.47645e-006 -6.50184e-008 -1.97211e-007 4.92573e-008 -6.50189e-008 -1.97205e-007 4.92825e-008 -0.0187317 -0.0011777 4.79898e-005 -6.50179e-008 -1.97213e-007 4.9251e-008 -6.50189e-008 -1.97205e-007 4.92825e-008 -0.0121907 -0.00322974 0.000668056 -6.50183e-008 -1.9721e-007 4.92634e-008 -6.50189e-008 -1.97205e-007 4.92825e-008 1.39204e-006 -1.70308e-006 -3.0845e-006 -6.50189e-008 -1.97205e-007 4.92826e-008 -21.1581 -5.95031 -1.94405 -28.5249 -5.65462 3.37289 -70.8026 60.623 -0.275967 6.99682 -2.68867e-007 1.70072e-006 2.28602e-015 8.89561e-015 6.36111e-015 -1.42649e-006 8.0225e-007 2.48167e-007 9.93923e-017 -8.44835e-015 -3.18055e-015 2.28602e-015 8.89561e-015 6.36111e-015 0.0149931 -9.11748e-005 -5.32066e-007 1.39149e-015 3.42904e-015 3.18055e-015 2.28602e-015 8.89561e-015 6.36111e-015 0.0189892 -0.00119149 -6.43971e-005 2.48481e-015 -1.81888e-014 1.27222e-014 2.28602e-015 8.89561e-015 6.36111e-015 0.0122976 -0.00325684 -0.000680985 -6.95746e-016 -3.97569e-016 -0 2.28602e-015 8.89561e-015 6.36111e-015 -1.42649e-006 8.0225e-007 2.48167e-007 9.93923e-017 -8.44835e-015 -3.18055e-015 -8.5476 -7.08362 -26.9006 10.5214 61.6698 -12.1791 -8.56303 19.3293 0.45092 -2.00924e-006 1.90862e-006 -1.02657e-006 6.297 -16.7119 -19.1798 -6.6334 14.4826 2.02836 8.8816 10.9352 0.821671 1.95404e-006 -6.42887e-007 -1.49445e-006 
2.51421 4.00209 6.29523 -47.1291 -89.9994 -0.12942 0.0322349 -0.308887 -9.88354 0.0109353 -0.618731 -19.7673 0.0109499 -0.618714 -19.7673 0.891283 18.1947 -20.514 19.9091 -10.4694 3.65363 -28.3861 -0.712986 2.45504 -44.795 8.97377 -47.5816 -18.6153 21.6179 -10.0671 -26.472 7.7642 -8.98643 4.40097e-007 1.60656e-006 6.59879e-007 -1.62941e-006 9.64222e-008 -9.25471e-007 -1.40642e-008 2.25294e-007 1.00275e-006 4.40097e-007 1.60656e-006 6.59879e-007 -0.0146409 -8.65671e-005 1.18932e-006 2.5842e-014 -1.03368e-014 3.18055e-015 4.40097e-007 1.60656e-006 6.59879e-007 -0.018781 -0.00117557 5.94865e-005 -9.54166e-015 2.46493e-014 3.18055e-015 4.40097e-007 1.60656e-006 6.59879e-007 -0.0122433 -0.00323993 0.000672607 3.57812e-015 -3.18055e-015 3.18055e-015 4.40097e-007 1.60656e-006 6.59879e-007 -1.62941e-006 9.64222e-008 -9.25471e-007 -1.40642e-008 2.25294e-007 1.00275e-006 -21.1581 -5.95031 -1.94405 -28.5249 -5.65461 3.3729 -70.8026 60.6231 -0.275965 6.99682 -1.30034e-006 8.90881e-006 -2.98177e-015 6.31141e-015 -0 -2.88238e-015 6.31141e-015 -3.18055e-015 2.48481e-015 7.00716e-015 -0 -2.98177e-015 6.31141e-015 -0 0.0149865 -9.22744e-005 -5.25564e-006 -1.3657e-006 3.61611e-007 -2.41978e-006 -2.98177e-015 6.31141e-015 -0 0.0189929 -0.00119167 -6.53077e-005 -1.98785e-016 -1.68967e-015 -0 -2.98177e-015 6.31141e-015 -0 0.0122574 -0.00324476 -0.000675538 -9.93923e-016 -6.21202e-015 6.36111e-015 -2.98177e-015 6.31141e-015 -0 -2.88238e-015 6.31141e-015 -3.18055e-015 2.48481e-015 7.00716e-015 -0 -8.54741 -7.08381 -26.9006 10.5212 61.67 -12.1792 -8.56309 19.3292 0.450922 7.95139e-016 -3.18055e-015 -0 6.33732 -16.6972 -19.0288 -6.63321 14.4778 2.02719 8.87842 10.9387 0.821707 -1.99164e-006 4.15207e-007 -2.60479e-006 
